<svg width="62" height="62" viewBox="0 0 62 62" fill="none" xmlns="http://www.w3.org/2000/svg">
<path d="M13.6658 38.3431H14.2199L17.3275 26.9744H10.3749C8.25996 26.9744 6.54541 28.689 6.54541 30.8039V31.2227C6.54541 35.1552 9.73323 38.3431 13.6658 38.3431Z" fill="#EAAC9D"/>
<path d="M48.8491 23.8284C49.6131 13.4541 41.4023 4.61633 31 4.61633C20.5977 4.61633 12.3869 13.4541 13.1509 23.8284L14.3678 40.3524C15.0095 49.0641 25.7495 55.1014 31 55.1014C36.2506 55.1014 46.9905 49.0641 47.6322 40.3524C47.6323 40.3524 48.8493 23.8284 48.8491 23.8284Z" fill="#FFCBBE"/>
<path d="M30.8555 0.046438C30.7982 -0.015398 30.7009 -0.015398 30.6435 0.046438C30.2274 0.496143 28.6642 2.26538 27.3662 4.8009C28.592 5.93965 29.8222 9.49158 30.7495 11.1822C31.6767 9.49145 32.9068 5.93953 34.1328 4.80077C32.8348 2.26538 31.2716 0.496022 30.8555 0.046438Z" fill="#DD5790"/>
<path d="M40.1147 54.9229V51.6642C36.9194 53.8499 25.0808 53.8499 21.8855 51.6642V54.9229C21.8855 56.7391 20.8438 58.3942 19.2064 59.1799L15.3541 61.0283C14.8639 61.2635 15.0315 62 15.5752 62H46.425C46.9687 62 47.1362 61.2635 46.646 61.0283L42.7938 59.1799C41.1563 58.3942 40.1147 56.7391 40.1147 54.9229Z" fill="#FFCBBE"/>
<path d="M48.3343 38.3431H47.7802L46.9365 26.9744H51.6251C53.7401 26.9744 55.4546 28.689 55.4546 30.8039V31.2227C55.4547 35.1552 52.2668 38.3431 48.3343 38.3431Z" fill="#DF9380"/>
<path d="M36.4023 5.44482C41.2968 8.9434 44.3375 14.8371 43.8592 21.3335C43.8593 21.3335 42.6422 37.8575 42.6422 37.8575C42.0006 46.5692 31.2607 52.6065 26.0101 52.6065C24.9204 52.6065 23.5942 52.3464 22.1709 51.8563C25.2892 53.9231 28.6804 55.1014 31 55.1014C36.2506 55.1014 46.9905 49.0641 47.6322 40.3524L48.8491 23.8284C49.4746 15.3354 44.0851 7.87219 36.4023 5.44482Z" fill="#EAAC9D"/>
<path d="M18.0162 16.845C17.3698 18.3188 16.9834 19.8964 16.8751 21.5264C16.8021 22.6235 17.6735 23.5536 18.7729 23.5536H30.0644C27.5052 22.925 18.3075 17.2963 18.0162 16.845Z" fill="#86F1A7"/>
<path d="M16.9138 21.0585C16.8983 21.214 16.8853 21.3699 16.8749 21.5264C16.8019 22.6235 17.6733 23.5536 18.7726 23.5536H30.0641C28.428 23.1517 24.5139 22.4053 22.3657 21.0585H16.9138Z" fill="#80E29D"/>
<path d="M43.7699 16.3807C43.4066 16.9947 33.5592 22.9252 31 23.5536H43.2272C44.3266 23.5536 45.1979 22.6235 45.1249 21.5265C45.005 19.724 44.5452 17.9856 43.7699 16.3807Z" fill="#80E29D"/>
<path d="M29.8673 15.4999C29.9532 14.2276 29.9604 12.4674 30.4282 11.1824C30.6626 10.5384 30.4315 9.62921 30.7496 9.04904C28.2439 4.47997 23.5255 1.89899 22.6607 1.45413C22.5857 1.41558 22.4942 1.44892 22.4616 1.52664C22.2243 2.09153 21.3605 4.28876 21.0081 7.11527C23.0783 7.98946 24.7467 10.2433 26.471 12.2982C27.3507 13.3466 28.6068 14.8471 29.1229 16.0143C29.1223 16.0131 29.8678 15.5008 29.8673 15.4999Z" fill="#DF75A5"/>
<path d="M28.5084 30.6617H21.0528C20.5361 30.6617 20.1172 30.2429 20.1172 29.726C20.1172 29.2093 20.536 28.7903 21.0528 28.7903H28.5084C29.0252 28.7903 29.4441 29.2091 29.4441 29.726C29.4441 30.2429 29.0252 30.6617 28.5084 30.6617Z" fill="#EAAC9D"/>
<path d="M31.0001 40.5534C30.4834 40.5534 30.0645 40.1346 30.0645 39.6177C30.0645 39.1009 30.4832 38.682 31.0001 38.682C31.8581 38.682 32.556 37.9841 32.556 37.1262V32.2174C32.556 30.3278 34.0934 28.7903 35.983 28.7903H40.9471C41.4639 28.7903 41.8828 29.2091 41.8828 29.726C41.8828 30.2428 41.464 30.6617 40.9471 30.6617H35.983C35.1251 30.6617 34.4272 31.3596 34.4272 32.2175V37.1263C34.4272 39.0159 32.8898 40.5534 31.0001 40.5534Z" fill="#EAAC9D"/>
<path d="M31.0002 48.5668C29.0294 48.5668 27.0593 48.1162 25.2628 47.2151L24.4798 46.8224C24.0178 46.5907 23.8312 46.0285 24.0629 45.5667C24.2944 45.1047 24.8566 44.9181 25.3187 45.1498L26.1018 45.5425C29.1691 47.0812 32.8315 47.0812 35.8986 45.5425L36.6818 45.1498C37.144 44.9182 37.7059 45.1047 37.9376 45.5667C38.1693 46.0285 37.9827 46.5907 37.5207 46.8224L36.7376 47.2151C34.9414 48.116 32.9704 48.5668 31.0002 48.5668Z" fill="#EAAC9D"/>
<path d="M39.0376 1.52652C39.005 1.4488 38.9135 1.41545 38.8386 1.45401C37.8638 1.95537 31.9948 5.16974 29.9145 10.8853C29.4469 12.1703 29.2072 13.4816 29.1213 14.7538C30.3159 17.4546 30.663 21.3625 30.7496 23.1582C30.8736 20.5871 31.5316 14.8636 34.4463 11.39C36.1705 9.33506 38.4209 7.98934 40.4911 7.11515C40.1387 4.28864 39.2749 2.09141 39.0376 1.52652Z" fill="#E490B7"/>
<path d="M42.5143 18.1599C46.424 13.5005 46.2731 6.81058 46.2199 5.71584C46.2158 5.63157 46.1412 5.56901 46.0576 5.57968C44.9702 5.71741 38.3557 6.73055 34.446 11.39C30.7891 15.7482 30.6846 21.8827 30.7299 23.5536H33.0768C35.636 22.925 39.7508 21.4533 42.5143 18.1599Z" fill="#EFA5C3"/>
<path d="M46.2202 5.71584C46.2161 5.63157 46.1415 5.56901 46.0578 5.57968C45.4939 5.65109 43.4439 5.95797 41.0553 6.8866C40.7192 9.48056 39.8244 12.9241 37.5245 15.665C35.6421 17.9082 33.1329 19.3063 30.9154 20.1684C30.7171 21.6989 30.7133 22.9335 30.7302 23.5536H33.077C35.6362 22.925 39.7509 21.4533 42.5145 18.16C46.4241 13.5005 46.2733 6.81058 46.2202 5.71584Z" fill="#E490B7"/>
<path d="M27.0528 11.3899C23.1431 6.73053 16.5286 5.71739 15.4412 5.57965C15.3576 5.5691 15.283 5.63167 15.2789 5.71581C15.2257 6.81055 15.0748 13.5005 18.9846 18.1599C21.748 21.4533 25.8629 22.925 28.4221 23.5534H30.7689C30.8143 21.8826 30.7099 15.7481 27.0528 11.3899Z" fill="#EFA5C3"/>
<path d="M27.0527 11.3899C24.8972 8.82109 21.9196 7.36054 19.4993 6.54407C20.4167 7.20026 21.2923 7.97684 22.0628 8.89505C24.7125 12.0529 25.4972 16.1436 25.7111 18.7928C25.8097 20.013 24.8501 21.0587 23.6259 21.0587H23.432C22.869 20.9204 22.2307 20.7412 21.548 20.511C23.9215 22.2084 26.5763 23.1003 28.422 23.5537H30.7688C30.8142 21.8827 30.7098 15.7482 27.0527 11.3899Z" fill="#E490B7"/>
</svg>
